<?xml version="1.0" encoding="UTF-8" standalone="no"?>
<!-- Generator: Adobe Illustrator 23.0.0, SVG Export Plug-In . SVG Version: 6.00 Build 0)  -->

<svg
   xmlns:dc="http://purl.org/dc/elements/1.1/"
   xmlns:cc="http://creativecommons.org/ns#"
   xmlns:rdf="http://www.w3.org/1999/02/22-rdf-syntax-ns#"
   xmlns:svg="http://www.w3.org/2000/svg"
   xmlns="http://www.w3.org/2000/svg"
   xmlns:sodipodi="http://sodipodi.sourceforge.net/DTD/sodipodi-0.dtd"
   xmlns:inkscape="http://www.inkscape.org/namespaces/inkscape"
   version="1.1"
   x="0px"
   y="0px"
   viewBox="0 0 150 150"
   style="enable-background:new 0 0 150 150;"
   xml:space="preserve"
   id="svg238"
   sodipodi:docname="d20.svg"
   inkscape:version="0.92.4 (fd57863, 2020-04-02)"><metadata
   id="metadata244"><rdf:RDF><cc:Work
       rdf:about=""><dc:format>image/svg+xml</dc:format><dc:type
         rdf:resource="http://purl.org/dc/dcmitype/StillImage" /></cc:Work></rdf:RDF></metadata><defs
   id="defs242" /><sodipodi:namedview
   pagecolor="#ffffff"
   bordercolor="#666666"
   borderopacity="1"
   objecttolerance="10"
   gridtolerance="10"
   guidetolerance="10"
   inkscape:pageopacity="0"
   inkscape:pageshadow="2"
   inkscape:window-width="1410"
   inkscape:window-height="829"
   id="namedview240"
   showgrid="false"
   inkscape:zoom="1.5733333"
   inkscape:cx="75"
   inkscape:cy="75"
   inkscape:window-x="70"
   inkscape:window-y="27"
   inkscape:window-maximized="0"
   inkscape:current-layer="g235" />
<style
   type="text/css"
   id="style2">
	.st0{display:none;}
	.st1{display:inline;fill:#000;}
	.st2{display:inline;}
	.st3{fill:#000;}
	.st4{fill:transparent;}
	.st5{fill:transparent;}
	.st6{fill:#000;}
</style>
<g
   id="Layer_1"
   class="st0">
	<circle
   class="st1"
   cx="75"
   cy="75"
   r="74"
   id="circle4" />
	<g
   class="st2"
   id="g30">
		<g
   id="g14">
			<path
   class="st3"
   d="M70.32,25.79c3.1-0.02,5.62,1.31,7.95,3.16c14.93,11.86,29.87,23.7,44.8,35.57     c5.79,4.6,5.53,10.92-0.66,14.93c-21.71,14.07-43.43,28.13-65.17,42.14c-7.35,4.74-13.17,2.18-14.26-6.39     c-2.95-23.04-5.76-46.1-8.58-69.16c-0.52-4.24,1.56-8.16,5.64-9.78c8.78-3.49,17.68-6.71,26.55-9.96     C67.74,25.88,69.07,25.95,70.32,25.79z M122.91,71.98c0.24-2.74-1.98-3.73-3.76-5.12c-13.21-10.35-26.37-20.76-39.59-31.1     c-4.23-3.31-7.61-2.19-9.05,2.95c-1.19,4.23-2.28,8.49-3.39,12.75c-5.46,20.94-10.89,41.88-16.41,62.81     c-0.43,1.63-0.64,2.99,0.8,4.05c1.51,1.12,2.91,0.28,4.19-0.55c21.75-14.08,43.5-28.18,65.24-42.28     C122.18,74.68,122.97,73.6,122.91,71.98z M48.02,115.49c0.39-1.26,0.83-2.51,1.15-3.79c2.44-9.76,4.87-19.52,7.29-29.28     c3.67-14.78,7.35-29.55,10.97-44.34c1.02-4.18-1.36-6.76-5.17-5.53C55.68,34.7,49.15,37,42.64,39.35     c-3.04,1.09-4.7,3.35-4.46,6.68c0.17,2.38,0.53,4.76,0.83,7.13c1.95,15.5,3.83,31.01,5.89,46.5     C45.58,104.92,45.79,110.29,48.02,115.49z M71.36,32.01c1.04,0.01,1.98-0.3,2.01-1.32c0.03-1.54-1.1-2.09-2.5-2.14     c-0.95-0.03-1.89,0.25-1.95,1.29C68.81,31.52,70.28,31.64,71.36,32.01z"
   id="path6" />
			<path
   class="st4"
   d="M122.91,71.98c0.06,1.62-0.73,2.71-1.97,3.51c-21.74,14.1-43.49,28.2-65.24,42.28     c-1.28,0.83-2.68,1.67-4.19,0.55c-1.44-1.07-1.23-2.42-0.8-4.05c5.52-20.92,10.95-41.87,16.41-62.81     c1.11-4.25,2.2-8.52,3.39-12.75c1.44-5.13,4.83-6.26,9.05-2.95c13.21,10.34,26.38,20.75,39.59,31.1     C120.93,68.25,123.15,69.24,122.91,71.98z"
   id="path8" />
			<path
   class="st4"
   d="M48.02,115.49c-2.23-5.2-2.43-10.57-3.13-15.83c-2.06-15.49-3.94-31-5.89-46.5     c-0.3-2.37-0.65-4.75-0.83-7.13c-0.24-3.33,1.42-5.59,4.46-6.68c6.51-2.34,13.04-4.64,19.62-6.78c3.81-1.24,6.19,1.34,5.17,5.53     c-3.62,14.79-7.3,29.56-10.97,44.34c-2.42,9.76-4.85,19.52-7.29,29.28C48.85,112.98,48.4,114.23,48.02,115.49z"
   id="path10" />
			<path
   class="st4"
   d="M71.36,32.01c-1.08-0.36-2.55-0.49-2.44-2.16c0.06-1.04,1-1.32,1.95-1.29c1.4,0.05,2.53,0.6,2.5,2.14     C73.35,31.71,72.4,32.02,71.36,32.01z"
   id="path12" />
		</g>
		<g
   id="g28">
			<path
   class="st3"
   d="M92.98,88.43c-0.07,3.5-0.07,3.49-3.03,2.11c-1.32-0.61-2.09,0.35-2.98,1.03c-2.06,1.57-3.37,0.98-3.38-1.55     c-0.01-3.99,1.42-7.61,3.42-11.01c0.43-0.72,1.13-1.45,2.15-1.16c0.88,0.25,0.97,1.08,0.98,1.85     C90.14,82.92,94.15,84.83,92.98,88.43z M87.69,82.48c-1.17,2.14-1.8,3.83-1.37,5.79C90.03,87.33,89.45,85.27,87.69,82.48z"
   id="path16" />
			<path
   class="st3"
   d="M81.71,73.91c0.04,4.24-2.9,6.27-7.02,4.69c-1.45-0.56-1.65,0.66-2.3,1.2c-1.43,1.19-2.92,2.05-4.81,1.19     c-1.94-0.89-2.69-2.56-2.75-4.58c-0.06-2.21,0.37-4.29,2.18-5.77c0.58-0.48,1.48-0.55,2.11-0.02c0.8,0.68,0.56,1.68,0.22,2.44     c-0.76,1.67-3.43,3.62-0.78,5.01c2.53,1.32,3.25-1.67,4.14-3.53c0.25-0.51,0.5-1.23,1.29-1.18c0.79,0.06,0.92,0.74,1.06,1.35     c0.27,1.13,0.54,2.34,2.12,1.96c1.44-0.34,1.77-1.58,2.06-2.85c0.21-0.91-0.63-2.62,1.29-2.39     C81.72,71.58,81.72,72.88,81.71,73.91z"
   id="path18" />
			<path
   class="st3"
   d="M96.61,59.29c-1.2-0.85-1.82-1.25-2.4-1.72c-0.72-0.57-1.37-1.22-0.64-2.21c0.63-0.86,1.46-0.93,2.34-0.43     c1.2,0.68,2.52,1.23,3.53,2.13c2.1,1.86,1.71,3.43-1.06,4.14c-2.33,0.6-4.71,1.04-6.74,2.39c-2.89,1.93-2.96,3.89-0.26,6.08     c0.52,0.42,1.17,0.75,0.79,1.4c-0.27,0.46-0.96,0.84-1.51,0.93c-1.44,0.22-2.78-0.24-3.78-1.29c-1.3-1.37-1.15-3.06-0.52-4.63     c0.95-2.36,2.97-3.7,5.19-4.73C93.01,60.69,94.52,60.14,96.61,59.29z"
   id="path20" />
			<path
   class="st3"
   d="M43.06,72.7c0.49-3.15,0.49-6.22,0.6-9.28c0.05-1.4,1.35-2.13,2.78-1.92c1.36,0.2,2.84,1.39,2.36,2.45     C47.37,67.06,46.69,70.79,43.06,72.7z"
   id="path22" />
			<path
   class="st3"
   d="M49.88,45.14c-0.29-0.95-0.57-1.9-0.86-2.84c-0.31-1.01,0.17-1.7,0.96-2.22c0.66-0.44,1.31-0.63,2.07-0.1     c0.93,0.65,0.83,1.46,0.54,2.33c-0.64,1.9-1.59,3.74-1.88,5.69c-0.21,1.36-1.93,3.28,0.99,4.32c1.23,0.44,0.15,1.78-0.52,2.42     c-1.03,0.99-1.83,0.37-2.33-0.69c-0.68-1.46-0.24-2.94-0.05-4.44C49,48.1,49.98,46.77,49.88,45.14z"
   id="path24" />
			<path
   class="st3"
   d="M58.93,67.57c-4.13-0.42-5.95-2.97-7.51-5.82c-0.25-0.45-0.31-1,0.16-1.36c0.46-0.37,0.97-0.17,1.34,0.17     C55.1,62.52,57.43,64.35,58.93,67.57z"
   id="path26" />
		</g>
	</g>
</g>
<g
   id="Layer_2"
   class="st0">
	<circle
   class="st1"
   cx="75.5"
   cy="75.5"
   r="74.5"
   id="circle33" />
	<g
   class="st2"
   id="g77">
		<path
   class="st3"
   d="M29.68,68.92c-0.27-7.38,4.52-12.37,8.15-17.79c3.56-5.32,7.55-10.33,11.45-15.41    c1.6-2.09,2.85-4.59,4.65-6.68c3.29-3.82,7.51-5.38,12.31-4.52c14.52,2.61,29,5.48,43.49,8.23c7,1.33,12.57,8.42,11.47,15.88    c-1.66,11.29-1,22.91-3.74,34.03c-3.09,12.55-7.95,24.58-12.4,36.71c-2.21,6.02-8.28,8.56-15.27,6.77    c-10.77-2.75-21.5-5.63-32.25-8.45c-3.9-1.02-7.82-1.94-11.69-3.08c-4.7-1.39-8.56-4.3-9.56-9.1    C33.78,93.38,31.84,81.13,29.68,68.92z M98.85,102.72c0-4.33,0.05-8.66-0.01-12.99c-0.08-5.32-2.88-8.94-8.05-10.29    c-4.17-1.08-8.39-1.96-12.59-2.93c-12.33-2.85-24.65-5.71-36.98-8.53c-4.95-1.13-7.17,1.09-6.32,6.03    c1.56,9.05,3.12,18.1,4.49,27.18c0.8,5.34,3.7,8.58,8.83,9.86c7.92,1.97,15.63,4.66,23.67,6.24c6.54,1.28,12.9,3.4,19.41,4.85    c5.38,1.2,7.31-0.42,7.51-6.02C98.98,111.66,98.85,107.19,98.85,102.72z M64.89,28.28c-4.04,0.31-7.07,1.65-9.23,4.77    c-5.56,8.02-11.17,16-16.78,23.98c-3.41,4.84-2.37,7.44,3.63,8.73c6.94,1.5,13.89,2.92,20.83,4.41c9.09,1.95,18.2,3.8,27.24,5.94    c4.28,1.01,11.05-0.68,12.16-4.1c2.81-8.64,7.34-16.5,10.84-24.81c2.47-5.86,0.77-9.21-5.65-10.53    c-8.44-1.74-16.91-3.36-25.36-5.01C76.56,30.49,70.55,29.36,64.89,28.28z M102.03,116.8c3.39-11.31,8.66-22.07,11.39-33.5    c2.81-11.77,2.54-24.1,3.63-36.75C104.13,68.57,98.9,91.7,102.03,116.8z"
   id="path35" />
		<path
   class="st4"
   d="M98.85,102.72c0,4.47,0.13,8.94-0.04,13.41c-0.21,5.6-2.14,7.22-7.51,6.02c-6.51-1.45-12.88-3.57-19.41-4.85    c-8.04-1.58-15.75-4.27-23.67-6.24c-5.14-1.28-8.03-4.52-8.83-9.86c-1.37-9.08-2.93-18.13-4.49-27.18    c-0.85-4.93,1.37-7.16,6.32-6.03c12.33,2.81,24.66,5.68,36.98,8.53c4.2,0.97,8.42,1.85,12.59,2.93c5.17,1.34,7.96,4.97,8.05,10.29    C98.91,94.06,98.85,98.39,98.85,102.72z M80.83,88.57c3.03,1.14,3.03,1.13,2.32,3.9c-0.16,0.61,0,1.12,0.65,1.29    c1.4,0.37,2.81,0.25,4.04-0.47c1.05-0.62,1.29-1.72,1.16-2.93c-0.43-4.02-7.62-7.37-10.99-5.12c-2,1.34-1.71,3.08-0.62,4.69    c0.98,1.44,2.31,3.69,4.13,2.7c1.93-1.06-1.71-2.12-0.88-3.69C80.7,88.81,80.76,88.69,80.83,88.57z M48.84,76.96    c-2.99,0.04-4.42,0.98-4.44,2.92c-0.03,2.96,4.42,6.35,8.23,6.36c2.26,0,3.88-0.61,3.77-3.26C56.28,80.18,52.17,76.92,48.84,76.96    z M85.93,115.63c1.83-0.09,3.76-0.1,3.82-2.68c0.07-2.61-4.6-5.95-8.12-5.73c-1.88,0.12-3.7,0.67-3.67,3.04    C78,112.86,82.29,115.68,85.93,115.63z M56.04,107.98c1.29,0.19,2.88-0.24,3.17-2.32c0.35-2.53-4.32-6.12-7.87-6.09    c-1.76,0.01-3.39,0.49-3.49,2.66C47.74,104.81,51.99,107.96,56.04,107.98z"
   id="path37" />
		<path
   class="st4"
   d="M64.89,28.28c5.66,1.08,11.67,2.22,17.67,3.39c8.46,1.65,16.92,3.27,25.36,5.01    c6.42,1.33,8.12,4.67,5.65,10.53c-3.5,8.32-8.03,16.17-10.84,24.81c-1.11,3.42-7.88,5.11-12.16,4.1    c-9.04-2.14-18.15-3.99-27.24-5.94c-6.94-1.49-13.89-2.91-20.83-4.41c-6-1.3-7.04-3.89-3.63-8.73    c5.62-7.98,11.23-15.96,16.78-23.98C57.82,29.92,60.85,28.59,64.89,28.28z M87.74,68.58c4.42-0.05,7.57-2.1,7.1-4.42    c-0.7-3.4-3.59-3.92-6.44-4.02c-3.64-0.12-6.78,2.08-6.37,4.48C82.62,68.19,85.56,68.41,87.74,68.58z M57.37,53.44    c-4.19-0.06-7.66,2.06-7.33,4.48c0.43,3.17,3.28,3.49,5.73,3.72c3.35,0.32,7.45-2.22,7.11-4.38    C62.36,53.98,59.51,53.72,57.37,53.44z M78.99,54.96c-0.74-0.87-1.22-1.56-1.83-2.11c-0.69-0.61-1.22-1.31-0.69-2.14    c0.59-0.93,1.63-0.93,2.62-0.71c1,0.22,1.93,0.66,1.81,1.86c-0.1,0.94-1.37,2.52,0.82,2.09c1.8-0.35,3.52-1.92,2.59-3.98    c-1.34-2.98-4.36-3.07-7.18-2.96c-2.68,0.11-4.77,1.85-4.92,4.16c-0.21,3.04,2.93,3.14,5.14,3.76    C77.73,55.05,78.17,54.96,78.99,54.96z M99.57,48.42c0.31-0.06,1.13-0.17,1.92-0.37c1.98-0.51,3.93-1.38,3.59-3.77    c-0.4-2.71-2.92-3.26-5.08-3.27c-1.66-0.01-3.4,0.79-4.98,1.49c-2.59,1.14-2.72,3.31-0.3,4.77C96,48.03,97.47,48.53,99.57,48.42z     M67.41,41.9c2.59,0.08,4.23-0.18,5.65-1.14c1.23-0.84,2.08-2,1.36-3.52c-1.97-4.18-5.74-0.33-8.49-1.77    c-1.03-0.54-2.63,0.65-3.11,2.12c-0.5,1.53,0.12,2.62,1.5,3.45C65.58,41.79,66.92,41.88,67.41,41.9z"
   id="path39" />
		<path
   class="st4"
   d="M102.03,116.8c-3.13-25.11,2.1-48.23,15.02-70.26c-1.1,12.65-0.82,24.98-3.63,36.75    C110.69,94.74,105.42,105.5,102.03,116.8z M108.51,86.4c1.67-3.45,2.81-7.03,2.41-10.93C108.72,78.79,107.79,82.4,108.51,86.4z"
   id="path41" />
		<path
   class="st3"
   d="M80.83,88.57c-0.07,0.12-0.13,0.24-0.2,0.36c-0.83,1.57,2.81,2.64,0.88,3.69c-1.82,0.99-3.15-1.26-4.13-2.7    C76.29,88.32,76,86.58,78,85.24c3.38-2.25,10.57,1.1,10.99,5.12c0.13,1.2-0.1,2.31-1.16,2.93c-1.23,0.72-2.64,0.84-4.04,0.47    c-0.65-0.17-0.81-0.68-0.65-1.29C83.85,89.71,83.85,89.71,80.83,88.57z"
   id="path43" />
		<path
   class="st3"
   d="M48.84,76.96c3.34-0.04,7.44,3.22,7.56,6.02c0.11,2.65-1.51,3.27-3.77,3.26c-3.8-0.01-8.26-3.4-8.23-6.36    C44.42,77.94,45.85,77,48.84,76.96z M52.88,83.13c-1.67-1.16-2.73-2.54-4.72-1.59C49.21,83.34,50.17,84.92,52.88,83.13z"
   id="path45" />
		<path
   class="st3"
   d="M85.93,115.63c-3.64,0.05-7.94-2.77-7.97-5.37c-0.03-2.36,1.79-2.92,3.67-3.04c3.52-0.22,8.19,3.12,8.12,5.73    C89.69,115.53,87.77,115.54,85.93,115.63z M80.94,111.35c1.83,1.41,2.97,2.78,4.81,1.49c0.25-0.18,0.41-0.99,0.36-1.02    C84.72,111.07,83.29,110.48,80.94,111.35z"
   id="path47" />
		<path
   class="st3"
   d="M56.04,107.98c-4.04-0.02-8.3-3.17-8.19-5.75c0.09-2.17,1.73-2.65,3.49-2.66c3.55-0.03,8.22,3.57,7.87,6.09    C58.91,107.74,57.33,108.17,56.04,107.98z M51.34,104.82c1.47,0.95,2.68,1.89,4.28,1.07c0.58-0.3,0.66-1.04,0.2-1.34    C54.53,103.71,53.13,103.43,51.34,104.82z"
   id="path49" />
		<path
   class="st3"
   d="M87.74,68.58c-2.18-0.17-5.12-0.38-5.72-3.96c-0.4-2.4,2.74-4.6,6.37-4.48c2.85,0.1,5.74,0.62,6.44,4.02    C95.31,66.48,92.16,68.53,87.74,68.58z M87.57,63.63c-0.66,0.55-2.56,0.07-2.41,1.7c0.12,1.3,1.72,1.54,2.97,1.59    c1.13,0.05,2.39-0.01,2.43-1.49C90.61,63.65,89.06,63.86,87.57,63.63z"
   id="path51" />
		<path
   class="st3"
   d="M57.37,53.44c2.13,0.28,4.99,0.54,5.5,3.83c0.34,2.16-3.76,4.7-7.11,4.38c-2.45-0.23-5.3-0.55-5.73-3.72    C49.72,55.51,53.18,53.38,57.37,53.44z M58.87,57.95c-0.23-1.18-1.04-1.78-2.09-1.49c-1.12,0.3-2.78,0.29-2.88,1.88    c-0.08,1.19,1.28,1.46,2.15,1.48C57.29,59.85,58.55,59.49,58.87,57.95z"
   id="path53" />
		<path
   class="st3"
   d="M78.99,54.96c-0.82,0-1.26,0.09-1.64-0.02c-2.21-0.62-5.35-0.72-5.14-3.76c0.16-2.31,2.25-4.06,4.92-4.16    c2.82-0.11,5.84-0.01,7.18,2.96c0.93,2.06-0.79,3.62-2.59,3.98c-2.19,0.43-0.91-1.15-0.82-2.09c0.12-1.2-0.81-1.64-1.81-1.86    c-0.99-0.22-2.04-0.22-2.62,0.71c-0.52,0.83,0.01,1.52,0.69,2.14C77.77,53.4,78.24,54.09,78.99,54.96z"
   id="path55" />
		<path
   class="st3"
   d="M99.57,48.42c-2.1,0.12-3.57-0.38-4.86-1.16c-2.42-1.46-2.29-3.62,0.3-4.77c1.59-0.7,3.32-1.5,4.98-1.49    c2.16,0.01,4.69,0.56,5.08,3.27c0.35,2.39-1.61,3.26-3.59,3.77C100.7,48.25,99.88,48.36,99.57,48.42z M97.96,43.43    c-0.23,0.01-1.29,0.35-1.26,1.5c0.04,1.3,1.21,1.75,2.39,1.84c1.07,0.08,2.08-0.28,2.04-1.5    C101.07,43.96,100.06,43.43,97.96,43.43z"
   id="path57" />
		<path
   class="st3"
   d="M67.41,41.9c-0.49-0.02-1.83-0.11-3.09-0.87c-1.38-0.83-2.01-1.92-1.5-3.45c0.49-1.48,2.08-2.67,3.11-2.12    c2.74,1.44,6.52-2.4,8.49,1.77c0.71,1.52-0.13,2.68-1.36,3.52C71.64,41.72,70,41.99,67.41,41.9z M68.2,40.8    c1.01-0.02,2.17-0.12,2.14-1.41c-0.05-1.68-1.43-1.84-2.75-1.81c-1.06,0.02-2.09,0.33-1.92,1.62C65.85,40.6,66.99,40.85,68.2,40.8    z"
   id="path59" />
		<path
   class="st3"
   d="M108.51,86.4c-0.71-4.01,0.21-7.62,2.41-10.93C111.32,79.37,110.18,82.96,108.51,86.4z"
   id="path61" />
		<path
   class="st4"
   d="M52.88,83.13c-2.71,1.79-3.67,0.21-4.72-1.59C50.15,80.59,51.2,81.97,52.88,83.13z"
   id="path63" />
		<path
   class="st4"
   d="M80.94,111.35c2.35-0.87,3.78-0.28,5.17,0.48c0.06,0.03-0.1,0.84-0.36,1.02    C83.91,114.14,82.77,112.76,80.94,111.35z"
   id="path65" />
		<path
   class="st4"
   d="M51.34,104.82c1.79-1.4,3.19-1.11,4.48-0.27c0.46,0.3,0.37,1.04-0.2,1.34    C54.02,106.72,52.81,105.78,51.34,104.82z"
   id="path67" />
		<path
   class="st4"
   d="M87.57,63.63c1.49,0.23,3.04,0.02,3,1.81c-0.04,1.47-1.3,1.53-2.43,1.49c-1.26-0.05-2.85-0.29-2.97-1.59    C85.01,63.7,86.91,64.18,87.57,63.63z"
   id="path69" />
		<path
   class="st4"
   d="M58.87,57.95c-0.33,1.54-1.59,1.9-2.82,1.87c-0.87-0.02-2.23-0.29-2.15-1.48c0.11-1.59,1.77-1.58,2.88-1.88    C57.83,56.17,58.64,56.77,58.87,57.95z"
   id="path71" />
		<path
   class="st4"
   d="M97.96,43.43c2.09,0,3.11,0.52,3.16,1.84c0.05,1.21-0.97,1.57-2.04,1.5c-1.18-0.09-2.35-0.54-2.39-1.84    C96.67,43.79,97.73,43.44,97.96,43.43z"
   id="path73" />
		<path
   class="st4"
   d="M68.2,40.8c-1.21,0.05-2.35-0.2-2.53-1.58c-0.17-1.3,0.86-1.6,1.92-1.62c1.32-0.03,2.7,0.13,2.75,1.81    C70.37,40.69,69.21,40.78,68.2,40.8z"
   id="path75" />
	</g>
</g>
<g
   id="Layer_3"
   class="st0">
	<circle
   class="st1"
   cx="75.5"
   cy="75.5"
   r="74.5"
   id="circle80" />
	<g
   class="st2"
   id="g102">
		<path
   class="st3"
   d="M121.01,57.5c0.03,3.65-1.73,6.78-2.79,10.05c-5.46,16.86-11.1,33.66-16.79,50.44    c-0.76,2.23-1.31,4.6-2.8,6.55c-2.75,3.59-5.96,4.56-9.94,2.46c-17.83-9.45-35.63-18.96-53.38-28.55    c-4.3-2.32-6.11-6.41-4.97-10.27c0.79-2.68,1.75-5.31,2.51-7.99c2.59-9.18,5.68-18.21,8.49-27.32c2.28-7.39,4.27-14.9,6.4-22.35    c2.13-7.45,6.56-9.31,13.52-6.12c17.76,8.13,35.49,16.32,53.27,24.4C118.38,50.55,120.62,53.29,121.01,57.5z M92.25,123.41    c2.76-0.21,3.79-1.12,4.3-3.05c2.75-10.2,7.27-19.79,10.02-30.02c2.43-9.05,5.72-17.88,8.66-26.79c0.5-1.52,1.02-2.96-0.47-4.24    c-1.3-1.11-2.63-0.74-3.98-0.16c-18.43,7.96-36.86,15.89-55.26,23.91c-4.48,1.95-4.8,3.83-1.25,6.96    c12.28,10.82,24.63,21.55,36.9,32.38C91.8,122.97,92.27,123.41,92.25,123.41z M48.79,74.45c-0.35,6.92,0.84,7.75,6.4,5.41    c9-3.78,18.02-7.52,27.04-11.25c9.73-4.03,19.47-8.04,29.2-12.08c1.03-0.43,2.35-0.7,2.26-2.25c-0.07-1.22-1.04-1.68-1.99-2.12    c-0.7-0.33-1.37-0.71-2.07-1.03C93.44,43.7,77.25,36.28,61.05,28.88c-5.47-2.5-7.64-1.41-8.26,4.53    C51.33,47.34,50.06,61.29,48.79,74.45z M84.14,118.99c-0.51-0.38-1.01-0.78-1.53-1.15c-11.38-8.04-21.46-17.69-32.33-26.35    c-3.74-2.97-8.9-3.08-12.77-0.18c-1.93,1.45-1.75,3.04,0.32,4.19c4,2.21,8.07,4.28,12.09,6.43c7.94,4.26,15.87,8.56,23.81,12.82    C77.02,116.52,80.14,118.67,84.14,118.99z M49.72,38.48c-5.44,16.7-10.79,33.44-14.91,50.65c2.79-1.13,5.96-1.18,7.39-4.01    c2.31-4.57,3.75-9.35,4.06-14.56c0.38-6.41,1.31-12.78,1.78-19.21C48.36,47.15,50.07,42.98,49.72,38.48z"
   id="path82" />
		<path
   class="st4"
   d="M92.25,123.41c0.02,0-0.45-0.44-1.08-1c-12.27-10.83-24.62-21.56-36.9-32.38c-3.55-3.13-3.23-5.01,1.25-6.96    c18.4-8.02,36.84-15.95,55.26-23.91c1.35-0.58,2.69-0.95,3.98,0.16c1.49,1.28,0.97,2.72,0.47,4.24    c-2.94,8.91-6.23,17.74-8.66,26.79c-2.75,10.23-7.28,19.82-10.02,30.02C96.04,122.29,95.01,123.2,92.25,123.41z M84.62,87.05    c-2.72,3.7-2.62,4.48,1.11,6.47c1.6,0.85,1.3,1.73,0.91,3.11c-0.65,2.3,0.26,3.87,2.87,3.72c4.81-0.27,7.97-6.16,5.51-10.3    c-0.64-1.07-0.53-1.88-0.04-2.84c1.45-2.87,1.43-5.71-1.46-7.45c-2.84-1.72-5.4-0.08-7.62,1.86c-1.32,1.15-2.65,2.81-1.44,4.26    c1.37,1.63,2.28-0.64,3.3-1.33c1.38-0.94,2.87-1.61,4.17-0.25c1.44,1.51,0.7,3.04-0.56,4.39C88.42,91.83,87.69,91.68,84.62,87.05z    "
   id="path84" />
		<path
   class="st4"
   d="M48.79,74.45c1.27-13.16,2.54-27.11,4-41.04c0.62-5.94,2.79-7.03,8.26-4.53c16.2,7.4,32.38,14.82,48.57,22.24    c0.7,0.32,1.37,0.71,2.07,1.03c0.96,0.44,1.92,0.91,1.99,2.12c0.09,1.54-1.24,1.82-2.26,2.25c-9.72,4.04-19.47,8.05-29.2,12.08    c-9.02,3.74-18.04,7.47-27.04,11.25C49.63,82.2,48.44,81.37,48.79,74.45z M74.11,51.6c2.29-0.12,3.79,0.11,4.32,1.69    c0.63,1.9-0.93,2.69-2.23,3.56c-1.52,1.02-3.28,0.88-4.87,0.74c-1.75-0.15-2.67,0-2.5,2c0.14,1.68,0.9,2.73,2.68,2.53    c2.58-0.29,5.07-1,7.21-2.51c1.98-1.39,3.73-6.23,2.11-8.82c-2.07-3.32-4.61-2.48-7.36-1.61c-0.61,0.19-1.21,0.47-1.83,0.56    c-0.75,0.11-1.62,0.22-1.92-0.76c-0.29-0.94,0.37-1.46,1.11-1.75c1.31-0.52,2.7-0.84,3.98-1.43c0.7-0.33,2.01-0.62,1.41-1.84    c-0.48-0.98-1.53-0.71-2.41-0.41c-1.46,0.5-2.88,1.15-4.37,1.49c-1.49,0.34-3.49,0.15-3.67,2.08c-0.21,2.22,0.85,4.32,2.39,5.91    c1.36,1.41,2.55-0.27,3.8-0.69C72.92,52.02,73.87,51.68,74.11,51.6z"
   id="path86" />
		<path
   class="st4"
   d="M84.14,118.99c-4-0.33-7.11-2.48-10.4-4.24c-7.94-4.26-15.87-8.55-23.81-12.82    c-4.02-2.16-8.1-4.22-12.09-6.43c-2.07-1.14-2.25-2.74-0.32-4.19c3.87-2.9,9.04-2.79,12.77,0.18    c10.88,8.66,20.95,18.31,32.33,26.35C83.13,118.21,83.63,118.61,84.14,118.99z M46.7,96.63c3.16,2.91,6.9,3.71,9.81,5.86    c0.52,0.38,1.6,0.42,2.03-0.4c0.34-0.66-0.23-1.29-0.74-1.63C54.64,98.4,51.8,95.45,46.7,96.63z"
   id="path88" />
		<path
   class="st4"
   d="M49.72,38.48c0.35,4.5-1.36,8.66-1.67,12.88c-0.48,6.42-1.41,12.79-1.78,19.21    c-0.31,5.21-1.75,9.99-4.06,14.56c-1.43,2.83-4.6,2.88-7.39,4.01C38.93,71.92,44.28,55.18,49.72,38.48z M44.76,64.87    c-0.35-0.06-0.69-0.12-1.04-0.18c-1.13,3.86-2.29,7.7-3.36,11.57c-0.26,0.94,0.19,1.97,1.1,2.21c1.06,0.27,1.62-0.77,1.8-1.62    C44.1,72.9,45.43,68.98,44.76,64.87z"
   id="path90" />
		<path
   class="st3"
   d="M84.62,87.05c3.07,4.64,3.81,4.79,6.73,1.65c1.26-1.35,2-2.89,0.56-4.39c-1.3-1.36-2.79-0.69-4.17,0.25    c-1.02,0.7-1.93,2.96-3.3,1.33c-1.21-1.45,0.12-3.11,1.44-4.26c2.22-1.94,4.78-3.57,7.62-1.86c2.89,1.74,2.91,4.59,1.46,7.45    c-0.49,0.96-0.6,1.77,0.04,2.84c2.47,4.14-0.69,10.02-5.51,10.3c-2.6,0.15-3.52-1.43-2.87-3.72c0.39-1.39,0.69-2.26-0.91-3.11    C81.99,91.52,81.9,90.74,84.62,87.05z M93.65,94.61c-0.2-1.59-1.4-1.18-2.35-1.23c-1.49-0.07-1.97,0.84-2.12,2.14    c-0.15,1.22,0.51,1.68,1.55,1.58C92.24,96.95,93.35,96.2,93.65,94.61z"
   id="path92" />
		<path
   class="st3"
   d="M74.11,51.6c-0.24,0.08-1.2,0.41-2.16,0.74c-1.25,0.42-2.43,2.1-3.8,0.69c-1.54-1.59-2.6-3.69-2.39-5.91    c0.18-1.94,2.18-1.74,3.67-2.08c1.49-0.34,2.91-0.99,4.37-1.49c0.88-0.3,1.93-0.57,2.41,0.41c0.6,1.22-0.71,1.51-1.41,1.84    c-1.27,0.59-2.67,0.91-3.98,1.43c-0.74,0.29-1.4,0.81-1.11,1.75c0.3,0.99,1.17,0.88,1.92,0.76c0.63-0.09,1.22-0.37,1.83-0.56    c2.75-0.87,5.3-1.71,7.36,1.61c1.61,2.59-0.14,7.43-2.11,8.82c-2.14,1.51-4.63,2.22-7.21,2.51c-1.79,0.2-2.54-0.85-2.68-2.53    c-0.17-1.99,0.75-2.15,2.5-2c1.59,0.13,3.36,0.28,4.87-0.74c1.29-0.87,2.86-1.66,2.23-3.56C77.9,51.71,76.4,51.49,74.11,51.6z"
   id="path94" />
		<path
   class="st3"
   d="M46.7,96.63c5.1-1.18,7.93,1.78,11.09,3.83c0.51,0.33,1.08,0.97,0.74,1.63c-0.43,0.82-1.51,0.78-2.03,0.4    C53.6,100.34,49.86,99.54,46.7,96.63z"
   id="path96" />
		<path
   class="st3"
   d="M44.76,64.87c0.67,4.11-0.67,8.03-1.5,11.98c-0.18,0.86-0.74,1.89-1.8,1.62c-0.91-0.23-1.36-1.26-1.1-2.21    c1.07-3.87,2.23-7.72,3.36-11.57C44.07,64.75,44.41,64.81,44.76,64.87z"
   id="path98" />
		<path
   class="st4"
   d="M93.65,94.61c-0.3,1.59-1.41,2.34-2.92,2.49c-1.05,0.11-1.7-0.36-1.55-1.58c0.15-1.3,0.63-2.22,2.12-2.14    C92.25,93.43,93.45,93.01,93.65,94.61z"
   id="path100" />
	</g>
</g>
<g
   id="Layer_4"
   class="st0">
	<circle
   class="st1"
   cx="75.09"
   cy="75.32"
   r="74.68"
   id="circle105" />
	<g
   class="st2"
   id="g141">
		<polygon
   class="st5"
   points="60.54,125.93 69.1,125.93 107.17,109.92 118.89,105.58 127.46,95.41 130.13,85.24 119.96,66.5     92.12,25.28 91.95,32.78 98.05,68.13 99.08,90.59 95.34,93.81 81.95,95.41 60.54,97.02 58.4,103.44   "
   id="polygon107" />
		<path
   class="st3"
   d="M63.23,129.68c-4.57-0.16-7.58-1.97-9.76-5.33c-10.96-16.93-21.95-33.84-32.93-50.75    c-3.14-4.84-3.08-8.73,0.31-12.97c2.32-2.89,4.87-5.6,7.12-8.55c4-5.25,9.65-8.11,15.38-10.81c13.11-6.17,26.28-12.21,39.4-18.36    c7.62-3.57,9.66-2.36,14.29,4.59c10.25,15.37,20.32,30.91,29.31,47.09c0.54,0.97,1.46,1.71,2.13,2.61    c3.75,4.98,4.65,10.23,1.69,15.96c-1.63,3.15-2.82,6.54-4.58,9.61c-2.56,4.47-6.58,6.95-11.51,8.67    c-15.17,5.3-30.18,11.04-45.26,16.56C66.83,128.74,64.75,129.23,63.23,129.68z M46.59,104.33l-0.06-0.06    c2.27,6.91,7.26,12.05,11.37,17.89c0.97-5.95-0.06-11.67-0.24-17.41c-0.17-5.34-2.16-9.9-5.93-13.74    c-5.97-6.08-11.86-12.23-17.8-18.34c-1.82-1.88-4-3.14-6.59-3.7c-1.21-0.26-2.51-1.21-3.46,0.24c-0.81,1.25,0.44,2.07,1.02,2.98    c6.26,9.83,12.51,19.66,18.85,29.44C44.43,102.69,44.67,104.47,46.59,104.33z M73.12,93.99c5.9-0.28,11.46-0.43,17.01-0.84    c5.8-0.43,7.78-2.62,7.91-8.38c0.03-1.28-0.05-2.57-0.23-3.84c-2.28-16.5-4.56-33-6.9-49.49c-0.62-4.4-2.84-5.4-6.41-2.73    C68.67,40.59,52.9,52.54,37.16,64.54c-3.3,2.51-3.29,4.34-0.29,7.33c5.53,5.52,11.36,10.77,16.55,16.59    c3.57,4.01,7.97,5.02,12.76,5.49C68.59,94.18,71.03,93.99,73.12,93.99z M114.4,101.94c2.47-0.96,5.71,2.37,7.66-1.33    c1.31-2.49,2.73-4.93,3.97-7.46c3.13-6.4,1.79-12.01-3.1-17c-0.88-0.9-1.41-2.13-2.1-3.22c-8.53-13.6-17.06-27.22-25.63-40.8    c-0.59-0.93-0.98-2.21-2.7-2.65c2.57,17.18,5.14,34.03,7.58,50.9c1.08,7.5,3.63,14,10.62,17.94c0.87,0.49,1.29,1.36,0.75,2.1    c-0.53,0.73-1.5,0.52-2.33,0.11c-2.62-1.3-5.31-2.38-8.16-3.15c-11.62-3.15-23.19-0.31-34.77,0.27c-2.62,0.13-5.02,2.14-5.15,5.37    c-0.25,6.11-0.52,12.22-0.54,18.33c-0.01,2.5,1.5,3.7,4.23,3.61c2.8-0.09,4.9-1.72,7.33-2.61c9.78-3.57,19.57-7.1,29.33-10.72    c3.18-1.18,6.18-2.9,9.43-3.77C116.21,106.42,116.27,106.62,114.4,101.94z M77.25,31.43c-0.21-0.26-0.43-0.52-0.64-0.78    c-1.04,0.38-2.11,0.68-3.11,1.15c-9.9,4.6-19.7,9.46-29.72,13.79c-8.52,3.68-14.6,9.75-19.26,17.52    c-0.43,0.71-1.19,1.31-0.66,2.27c0.59,1.07,1.57,1.08,2.6,0.93c3.12-0.47,6.05-1.3,8.66-3.28c9.9-7.48,19.88-14.84,29.82-22.27    C69.07,37.68,73.15,34.54,77.25,31.43z"
   id="path109" />
		<path
   class="st4"
   d="M73.12,93.99c-2.09,0-4.53,0.19-6.94-0.04c-4.79-0.47-9.19-1.48-12.76-5.49    c-5.19-5.82-11.02-11.07-16.55-16.59c-3-2.99-3.01-4.82,0.29-7.33C52.9,52.54,68.67,40.59,84.5,28.7    c3.56-2.68,5.78-1.67,6.41,2.73c2.34,16.49,4.62,32.99,6.9,49.49c0.18,1.27,0.26,2.56,0.23,3.84c-0.13,5.76-2.11,7.96-7.91,8.38    C84.58,93.56,79.02,93.71,73.12,93.99z M83.32,65.43c-0.12-2.22-0.54-4.32-2.63-5.51c-2.27-1.3-4.45-0.54-6.32,0.87    c-3.77,2.85-5.3,6.88-5.46,11.47c-0.09,2.6,1.7,4.22,3.68,5.31c2.08,1.14,4.06,0.2,5.84-1.23C81.92,73.5,82.73,69.51,83.32,65.43z     M66.5,56.15c-4.99,0.13-10.61,5.84-11.43,11.21c-0.29,1.93-0.72,4.17,1.27,5.49c1.93,1.28,4.09,0.94,6.06-0.14    c4.86-2.67,7.37-7.04,8.1-12.32C70.91,57.35,68.76,56.15,66.5,56.15z"
   id="path111" />
		<path
   class="st4"
   d="M46.59,104.33c-1.91,0.14-2.15-1.64-2.84-2.7c-6.34-9.77-12.59-19.61-18.85-29.44    c-0.58-0.91-1.83-1.74-1.02-2.98c0.95-1.45,2.25-0.5,3.46-0.24c2.59,0.56,4.76,1.82,6.59,3.7c5.94,6.11,11.83,12.27,17.8,18.34    c3.77,3.84,5.76,8.4,5.93,13.74c0.18,5.74,1.21,11.46,0.24,17.41c-4.11-5.84-9.1-10.98-11.37-17.89c0.74-0.34,2.62,0.8,2.18-0.81    c-1.3-4.8-3.07-9.48-4.66-14.2C43.29,94.66,44.98,99.49,46.59,104.33z M36.49,87.64c3.52,1.27,3.46,5.06,5.35,8.08    C42.54,89.27,40.86,86.75,36.49,87.64z"
   id="path113" />
		<path
   class="st4"
   d="M77.25,31.43c-4.1,3.11-8.18,6.25-12.3,9.33c-9.94,7.43-19.92,14.79-29.82,22.27    c-2.61,1.98-5.54,2.8-8.66,3.28c-1.03,0.16-2.02,0.14-2.6-0.93c-0.53-0.96,0.23-1.56,0.66-2.27c4.66-7.77,10.74-13.83,19.26-17.52    C53.8,41.26,63.59,36.41,73.5,31.8c1-0.46,2.07-0.77,3.11-1.15C76.82,30.91,77.03,31.17,77.25,31.43z M46.47,50.65    c-2.21-1.04-3.7,2.4-5.9,0.87c-0.95-0.66-1.69-0.24-2.1,0.58c-0.28,0.57-0.44,1.48-0.17,1.97c0.47,0.84,1.54,0.64,2.35,0.51    C43.17,54.2,45.09,52.88,46.47,50.65z"
   id="path115" />
		<path
   class="st3"
   d="M83.32,65.43c-0.6,4.09-1.4,8.07-4.9,10.91c-1.77,1.44-3.76,2.37-5.84,1.23c-1.98-1.08-3.77-2.7-3.68-5.31    c0.16-4.59,1.7-8.62,5.46-11.47c1.87-1.41,4.05-2.17,6.32-0.87C82.78,61.11,83.2,63.2,83.32,65.43z M79.96,66.49    c0.11-1.97,0.12-3.8-2.01-4.38c-1.9-0.52-2.89,1.03-3.64,2.34c-0.84,1.46-1.5,3.1-1.87,4.74c-0.41,1.83-0.48,3.91,1.66,4.8    c2.24,0.93,3.39-0.71,4.32-2.42C79.32,69.93,80.01,68.21,79.96,66.49z"
   id="path117" />
		<path
   class="st3"
   d="M66.5,56.15c2.27,0,4.41,1.21,4,4.24c-0.73,5.28-3.24,9.65-8.1,12.32c-1.97,1.08-4.13,1.42-6.06,0.14    c-1.99-1.32-1.56-3.56-1.27-5.49C55.89,61.99,61.51,56.28,66.5,56.15z M58.59,66.33c-0.05,1.4-0.19,2.57,1.04,3.25    c1.16,0.63,2.2,0.25,3.15-0.45c2.67-1.97,3.92-4.75,4.34-7.94c0.13-1.01-0.09-1.93-1.18-2.48c-1.09-0.55-2.03-0.07-2.75,0.49    C60.77,61.07,59.36,63.65,58.59,66.33z"
   id="path119" />
		<path
   class="st3"
   d="M103.8,70.4c3.32-2.7,5.7-2.04,6.18,1.38c0.24,1.67,0.2,3.39-0.72,4.94c-1.43,2.39-1.06,4,1.96,4.44    c0.52,0.08,1.34,0.04,1.17,0.81c-0.14,0.61-0.67,1.53-1.14,1.6c-1.87,0.28-3.36,2.52-5.48,1.25c-0.93-0.56-1.17-1.69-0.77-2.66    c0.84-2.09,1.94-4.08,2.76-6.19C109.22,72.18,108.22,70.62,103.8,70.4z"
   id="path121" />
		<path
   class="st3"
   d="M83.4,109.4c-0.78,0.13-1.99,0.65-2.28,0.33c-2.49-2.76-2.65-2.81-5.28-0.04c-1.25,1.32-2.62,2.65-2.19,4.7    c0.13,0.61,1.73,1.08,0.3,1.79c-0.66,0.33-1.7,0.17-2.45-0.09c-0.68-0.24-0.78-1-0.7-1.8c0.39-3.51,8.15-10.72,11.77-10.8    c1.99-0.05,2.99,0.83,2.22,2.9c-0.39,1.05-0.95,2.05-1.44,3.07L83.4,109.4z"
   id="path123" />
		<path
   class="st3"
   d="M117.31,71.15c2.21,2.41,2.91,5.48,3.69,8.5c0.3,1.18-0.02,2.4-1.18,2.95c-1.21,0.57-2.67,0.58-3.45-0.66    c-2.19-3.46-4.65-6.86-4.84-11.18c-0.05-1.05-0.51-2.47,0.85-3.02c1.19-0.48,2.18,0.2,2.89,1.22c-0.24,0.29-0.48,0.59-0.72,0.88    c-3.55,1.58-0.53,3.55-0.11,5.14c0.44,1.65,1.6,4.41,3.31,3.69c1.97-0.84,0.26-3.18-0.35-4.81c-0.25-0.66-0.53-1.31-0.8-1.96    C116.83,71.66,117.07,71.41,117.31,71.15z"
   id="path125" />
		<path
   class="st3"
   d="M116.19,69.8c0.37,0.45,0.74,0.91,1.11,1.36c-0.24,0.25-0.47,0.5-0.71,0.75c-0.42-0.46-0.84-0.92-1.26-1.37    C115.62,70.29,115.91,70.05,116.19,69.8z"
   id="path127" />
		<path
   class="st3"
   d="M115.27,68.97c0.31,0.28,0.62,0.55,0.92,0.83c-0.29,0.24-0.57,0.49-0.86,0.73c-0.26-0.23-0.52-0.45-0.79-0.68    C114.79,69.56,115.03,69.27,115.27,68.97z"
   id="path129" />
		<path
   class="st3"
   d="M46.59,104.33c-1.6-4.84-3.29-9.66-2.54-15.07c1.59,4.73,3.36,9.4,4.66,14.2c0.44,1.61-1.44,0.48-2.18,0.81    C46.53,104.27,46.59,104.33,46.59,104.33z"
   id="path131" />
		<path
   class="st3"
   d="M46.47,50.65c-1.38,2.23-3.3,3.55-5.82,3.94c-0.81,0.13-1.88,0.33-2.35-0.51c-0.27-0.49-0.11-1.41,0.17-1.97    c0.4-0.82,1.15-1.24,2.1-0.58C42.77,53.05,44.26,49.61,46.47,50.65z"
   id="path133" />
		<path
   class="st4"
   d="M79.96,66.49c0.05,1.72-0.64,3.43-1.53,5.08c-0.93,1.71-2.08,3.35-4.32,2.42c-2.14-0.89-2.07-2.98-1.66-4.8    c0.37-1.64,1.03-3.28,1.87-4.74c0.75-1.31,1.73-2.86,3.64-2.34C80.07,62.69,80.07,64.52,79.96,66.49z"
   id="path135" />
		<path
   class="st4"
   d="M58.59,66.33c0.77-2.68,2.18-5.26,4.61-7.14c0.73-0.56,1.67-1.03,2.75-0.49c1.09,0.55,1.31,1.48,1.18,2.48    c-0.43,3.19-1.67,5.97-4.34,7.94c-0.95,0.7-2,1.08-3.15,0.45C58.4,68.91,58.54,67.73,58.59,66.33z"
   id="path137" />
		<path
   class="st4"
   d="M114.55,69.85c0.26,0.23,0.53,0.45,0.79,0.68c0.42,0.46,0.84,0.92,1.26,1.37c0.27,0.65,0.56,1.3,0.8,1.96    c0.61,1.64,2.32,3.98,0.35,4.81c-1.71,0.73-2.87-2.03-3.31-3.69C114.02,73.4,111,71.43,114.55,69.85z"
   id="path139" />
	</g>
</g>
<g
   id="Layer_5"
   class="st0">
	<circle
   class="st1"
   cx="75.18"
   cy="75"
   r="74.18"
   id="circle144" />
	<g
   class="st2"
   id="g172">
		<path
   class="st3"
   d="M65.52,123.76c-7.03,0.92-12.07-2.87-16.04-8.12c-7.12-9.41-13.95-19.05-20.82-28.66    c-4.03-5.63-5.41-11.51-1.98-18.13c2.32-4.47,4.23-9.19,6.01-13.92c2.67-7.08,7.26-12.62,12.38-18.13c5.8-6.24,13-7.91,20.68-8.97    c5.01-0.69,10.09-0.85,15.1-1.52c7.59-1.01,13.47,1.19,18.46,7.33c8.61,10.61,16.27,21.83,23.44,33.43    c3.41,5.52,3.78,11.17,1.14,17.04c-3.08,6.86-6.21,13.69-9.33,20.53c-1.77,3.89-4.44,6.99-8.21,9.09    c-1.02,0.57-2.09,1.08-3.01,1.78c-6.29,4.8-13.41,7.12-21.29,7.39C76.6,123.11,71.16,123.47,65.52,123.76z M82.92,86.95    c-0.02,0-0.04,0-0.06,0c0-3.51,0.09-7.01-0.02-10.51c-0.14-4.36-1.15-8.14-6.06-9.72c-7.38-2.38-14.6-5.25-22.02-7.48    c-3.67-1.1-7.14,0-9.69,3.29c-3.89,5.01-7.87,9.96-11.9,14.86c-2.44,2.96-2.37,5.72-0.12,8.79c5.9,8.05,11.76,16.14,17.46,24.33    c2.12,3.05,4.47,3.81,7.95,2.62c5.5-1.89,11.1-3.46,16.66-5.18c5.23-1.63,7.77-5.17,7.8-10.86C82.94,93.7,82.92,90.33,82.92,86.95    z M85.86,86.17c0,3.89-0.12,7.79,0.03,11.68c0.2,5.02,2.81,7.6,7.68,8c3.23,0.26,6.47,0.47,9.68,0.92    c3.88,0.54,6.54-0.86,8.15-4.42c3.08-6.85,6.25-13.66,9.26-20.54c1.71-3.9,1.68-7.82-0.67-11.53c-2.49-3.94-5.04-7.85-7.53-11.8    c-5.37-8.52-4.77-7.05-11.96-2.14C89.78,63.67,82.71,72.28,85.86,86.17z M84.97,29.94c-7.89,0.75-14.34,1.31-20.77,2    c-7.43,0.8-8.92,2.19-10.67,9.47c-0.45,1.89-0.84,3.79-1.3,5.67c-1.36,5.63,0.04,8.29,5.44,10.09c6.13,2.05,12.28,4.04,18.44,6.03    c4.24,1.37,8.6,1.43,12.32-1.01c5.08-3.33,9.8-7.2,14.63-10.91c1.97-1.51,2.25-3.34,0.65-5.38c-2.72-3.47-5.47-6.91-8.08-10.45    C92.59,31.34,88.66,29.42,84.97,29.94z M105.46,109.2c-1.08-0.22-1.66-0.36-2.25-0.46c-15.77-2.71-30.43,2.3-45.19,6.56    c-0.65,0.19-1.31,0.44-1.39,1.14c-0.1,0.92,0.73,1.33,1.38,1.69c4.08,2.28,8.66,3.03,13.02,2.07c3.32-0.74,6.54-1.29,9.89-1.16    C90.38,119.39,97.99,115.23,105.46,109.2z M51.95,36.74c-5.02,4.03-10.25,7.84-13.1,13.59c-3.08,6.21-5.47,12.75-8.15,19.15    c-0.75,1.78-1.6,3.54-2.2,5.37c-0.31,0.94-0.48,2.23,0.6,2.82c1.31,0.71,1.77-0.66,2.34-1.4c4.08-5.32,8.17-10.65,12.16-16.04    C48.74,53.3,50.39,45.07,51.95,36.74z"
   id="path146" />
		<path
   class="st4"
   d="M82.92,86.95c0,3.38,0.01,6.75,0,10.12c-0.03,5.69-2.57,9.24-7.8,10.86c-5.55,1.73-11.16,3.29-16.66,5.18    c-3.48,1.2-5.83,0.43-7.95-2.62c-5.7-8.19-11.56-16.28-17.46-24.33c-2.25-3.06-2.32-5.83,0.12-8.79c4.03-4.9,8.01-9.85,11.9-14.86    c2.55-3.29,6.03-4.39,9.69-3.29c7.42,2.22,14.64,5.1,22.02,7.48c4.91,1.58,5.92,5.36,6.06,9.72c0.12,3.5,0.02,7.01,0.02,10.51    C82.88,86.95,82.9,86.95,82.92,86.95z M58.88,94.08c0.72,0,1.19-0.35,1.52-0.99c0.35-0.68,0.2-1.37-0.29-1.76    c-0.69-0.55-1.51-1.11-2.35-1.28c-3.83-0.76-2.88-2.54-1.17-4.69c1.84-2.31,4.18-4.29,5.13-7.21c0.44-1.35,0.25-2.68-1.27-3.22    c-1.53-0.54-2.46,0.26-2.83,1.77c-0.98,3.95-3,7.4-5.25,10.72c-0.81,1.18-1.33,2.98-0.29,3.41C54.41,91.8,56.63,92.97,58.88,94.08    z"
   id="path148" />
		<path
   class="st4"
   d="M85.86,86.17c-3.15-13.89,3.93-22.51,14.64-29.82c7.19-4.91,6.6-6.37,11.96,2.14    c2.49,3.95,5.04,7.85,7.53,11.8c2.34,3.71,2.37,7.63,0.67,11.53c-3.01,6.88-6.18,13.69-9.26,20.54c-1.6,3.56-4.27,4.96-8.15,4.42    c-3.21-0.45-6.45-0.66-9.68-0.92c-4.87-0.4-7.48-2.98-7.68-8C85.73,93.97,85.86,90.07,85.86,86.17z M99.15,79.75    c0.04,1.75,0.24,3.14,1.88,3.77c1.17,0.44,1.44,1.27,1.24,2.48c-0.21,1.23-0.66,2.79,0.93,3.35c1.6,0.56,2.71-0.7,3.52-1.86    c1.35-1.93,2.93-4.33,1.86-6.43c-1.27-2.49-1.09-4.73-0.92-7.23c0.08-1.25-0.52-2.6-1.98-3.04c-1.3-0.39-2.26,0.41-3.08,1.23    C100.37,74.21,99.37,76.95,99.15,79.75z"
   id="path150" />
		<path
   class="st4"
   d="M84.97,29.94c3.7-0.52,7.62,1.4,10.67,5.53c2.61,3.54,5.36,6.98,8.08,10.45c1.59,2.04,1.31,3.87-0.65,5.38    C98.23,55,93.5,58.87,88.43,62.2c-3.72,2.44-8.08,2.39-12.32,1.01c-6.15-1.99-12.3-3.98-18.44-6.03c-5.4-1.8-6.79-4.46-5.44-10.09    c0.45-1.89,0.85-3.79,1.3-5.67c1.74-7.28,3.24-8.67,10.67-9.47C70.63,31.25,77.08,30.69,84.97,29.94z M77.49,38.03    c-0.51,0.14-1.26,0.31-1.98,0.56c-1.21,0.42-2.31,1.32-1.66,2.55c0.85,1.6,1.55-0.12,2.36-0.46c2.96-1.24,4.71,0.25,5.7,2.87    c0.4,1.06,0.3,2.3,0.55,3.44c0.57,2.59,1.78,3.75,4.28,1.76c0.7-0.56,1.55-0.95,2.23-1.53c0.68-0.59,2.23-0.9,1.32-2.27    c-0.75-1.11-2.03-1.26-3.07-0.41c-2.51,2.05-3.1,0.86-3.6-1.69C83.02,39.81,80.66,38.49,77.49,38.03z M80.86,52.73    c-0.11-0.98-11.94-10.3-12.67-10c-1.44,0.59-2.89,1.45-2.81,3.24c0.04,0.9,0.95,1.82,1.94,0.95c2.38-2.08,3.75-0.12,5.21,1.2    c1.72,1.55,3.28,3.28,4.94,4.91c0.84,0.82,1.89,0.78,2.9,0.45C80.62,53.39,80.74,52.91,80.86,52.73z"
   id="path152" />
		<path
   class="st4"
   d="M105.46,109.2c-7.48,6.02-15.08,10.19-24.54,9.84c-3.35-0.12-6.57,0.43-9.89,1.16    c-4.36,0.97-8.94,0.21-13.02-2.07c-0.64-0.36-1.48-0.77-1.38-1.69c0.08-0.7,0.74-0.96,1.39-1.14c14.76-4.26,29.42-9.27,45.19-6.56    C103.8,108.84,104.39,108.98,105.46,109.2z M76.95,117.54c1.26,0,2.38-0.09,3.49,0.02c2.88,0.29,3.04-3.07,5.19-3.79    c0.51-0.17,0.35-1-0.15-1.25c-1.87-0.93-3.75-0.48-5.6,0.15c-0.9,0.31-1.92,0.43-2.22,1.55c1.37,1.08,2.94-0.88,4.28,0.3    C80.73,116.53,77.98,115.28,76.95,117.54z"
   id="path154" />
		<path
   class="st4"
   d="M51.95,36.74c-1.56,8.34-3.21,16.56-8.35,23.49c-4,5.39-8.08,10.71-12.16,16.04    c-0.57,0.74-1.03,2.12-2.34,1.4c-1.08-0.59-0.91-1.88-0.6-2.82c0.6-1.83,1.45-3.59,2.2-5.37c2.69-6.4,5.08-12.95,8.15-19.15    C41.7,44.58,46.93,40.77,51.95,36.74z M41.96,54.07c-0.19,1.94-1.48,3.09-2.91,4.19c-0.68,0.52-0.94,1.29-0.29,1.97    c0.64,0.67,1.46,0.44,2.05-0.13c1.31-1.28,2.06-2.88,2.52-4.66c0.44-1.67,1.03-3.71-1.2-4.1c-2.04-0.35-3.11,1.26-3,3.36    C40.36,55.28,40.76,53.35,41.96,54.07z"
   id="path156" />
		<path
   class="st3"
   d="M58.88,94.08c-2.25-1.11-4.47-2.28-6.8-3.25c-1.03-0.43-0.51-2.23,0.29-3.41c2.26-3.31,4.27-6.77,5.25-10.72    c0.37-1.51,1.3-2.3,2.83-1.77c1.52,0.53,1.71,1.87,1.27,3.22c-0.96,2.92-3.29,4.9-5.13,7.21c-1.71,2.15-2.65,3.92,1.17,4.69    c0.84,0.17,1.66,0.73,2.35,1.28c0.49,0.4,0.64,1.08,0.29,1.76C60.08,93.72,59.6,94.07,58.88,94.08z"
   id="path158" />
		<path
   class="st3"
   d="M99.15,79.75c0.22-2.8,1.22-5.55,3.44-7.75c0.83-0.82,1.78-1.63,3.08-1.23c1.46,0.44,2.06,1.79,1.98,3.04    c-0.17,2.5-0.35,4.74,0.92,7.23c1.07,2.1-0.51,4.51-1.86,6.43c-0.81,1.16-1.93,2.41-3.52,1.86c-1.59-0.55-1.14-2.12-0.93-3.35    c0.21-1.2-0.06-2.03-1.24-2.48C99.39,82.9,99.19,81.5,99.15,79.75z M102.88,79.87c1.73-0.59,2.84-1.69,2.66-3.69    c-0.08-0.93-0.29-1.98-1.57-1.64c-1.73,0.46-2.39,1.94-2.53,3.54C101.37,78.86,101.4,80.02,102.88,79.87z"
   id="path160" />
		<path
   class="st3"
   d="M77.49,38.03c3.18,0.46,5.54,1.79,6.13,4.82c0.5,2.56,1.09,3.74,3.6,1.69c1.04-0.85,2.32-0.7,3.07,0.41    c0.92,1.36-0.64,1.67-1.32,2.27c-0.67,0.59-1.52,0.97-2.23,1.53c-2.5,1.99-3.71,0.83-4.28-1.76c-0.25-1.13-0.15-2.37-0.55-3.44    c-0.99-2.62-2.75-4.11-5.7-2.87c-0.81,0.34-1.51,2.06-2.36,0.46c-0.66-1.24,0.45-2.13,1.66-2.55    C76.23,38.34,76.97,38.17,77.49,38.03z"
   id="path162" />
		<path
   class="st3"
   d="M80.86,52.73c-0.11,0.18-0.24,0.66-0.49,0.75c-1.01,0.33-2.07,0.37-2.9-0.45c-1.66-1.62-3.22-3.35-4.94-4.91    c-1.46-1.31-2.82-3.28-5.21-1.2c-0.99,0.87-1.9-0.05-1.94-0.95c-0.08-1.8,1.37-2.65,2.81-3.24    C68.92,42.44,80.74,51.75,80.86,52.73z"
   id="path164" />
		<path
   class="st3"
   d="M76.95,117.54c1.03-2.25,3.78-1.01,4.98-3.02c-1.34-1.18-2.91,0.78-4.28-0.3c0.3-1.11,1.32-1.24,2.22-1.55    c1.86-0.63,3.73-1.07,5.6-0.15c0.5,0.25,0.66,1.08,0.15,1.25c-2.15,0.72-2.31,4.08-5.19,3.79    C79.33,117.44,78.21,117.54,76.95,117.54z"
   id="path166" />
		<path
   class="st3"
   d="M41.96,54.07c-1.2-0.72-1.6,1.22-2.83,0.64c-0.11-2.1,0.96-3.71,3-3.36c2.23,0.38,1.64,2.43,1.2,4.1    c-0.46,1.77-1.21,3.37-2.52,4.66c-0.58,0.57-1.4,0.8-2.05,0.13c-0.66-0.68-0.4-1.45,0.29-1.97C40.48,57.16,41.77,56,41.96,54.07z"
   id="path168" />
		<path
   class="st4"
   d="M102.88,79.87c-1.47,0.15-1.51-1.01-1.44-1.79c0.14-1.6,0.8-3.08,2.53-3.54c1.27-0.34,1.48,0.71,1.57,1.64    C105.71,78.18,104.6,79.29,102.88,79.87z"
   id="path170" />
	</g>
</g>
<g
   id="Layer_6">
	
	<g
   id="g235">
		<path
   class="st3"
   d="M27.76,79.62c-0.31-6.79-0.61-12.55-0.82-18.31c-0.13-3.62,0.7-7.21,2.73-10.07c1.72-2.42,3.88-4.71,6.71-6.2    c8.58-4.52,16.31-10.39,24.4-15.67c8.53-5.57,16.2-8.15,25.96-1.63c8.28,5.54,17.51,9.81,25.95,15.26    c3.8,2.45,6.25,6.28,6.84,10.81c1.66,12.66,3.02,25.37,3.55,38.14c0.29,7.04-3.09,12.33-9.3,15.73    c-10.45,5.74-20.9,11.46-31.35,17.19c-5.13,2.81-10.41,2.99-15.62,0.47c-9.37-4.52-18.67-9.17-27.95-13.86    c-6.49-3.28-10.06-8.43-10.18-15.93C28.56,89.9,28.03,84.24,27.76,79.62z M66.35,65.22c-2.35,0.26-4.7,0.66-7.06,0.73    c-3.39,0.11-4.75,1.71-5.19,5.07c-0.31,2.38,1.82,1.71,2.54,2.91c6.98,11.66,14.97,22.69,21.74,34.5    c1.29,2.25,2.89,2.06,4.46,0.42c0.7-0.73,1.13-1.73,1.6-2.65c3.68-7.18,7.69-14.22,10.91-21.6c2.69-6.16,6.45-11.75,8.94-17.99    c0.75-1.88,0.09-3.16-0.9-4.41c-0.99-1.25-2.42-1.32-3.76-0.51c-1.27,0.77-2.58,0.71-3.99,0.65c-5.09-0.2-10.1,0.83-15.17,1.12    C75.72,63.73,71.01,64.3,66.35,65.22z M62.59,63.32c0.33-0.06,0.69-0.07,1-0.2c5.54-2.33,11.54-1.13,17.29-2.22    c6.79-1.29,13.78-1.44,20.68-2.19c3.09-0.34,3.79-1.87,1.76-4.02c-7.71-8.15-15.44-16.28-23.37-24.22    c-3.16-3.17-6.52-2.51-8.89,1.28c-5.18,8.28-10.32,16.59-15.41,24.93c-1.98,3.25-0.48,5.97,3.2,6.07    C60.12,62.78,61.39,62.72,62.59,63.32z M116.14,85.76c-0.5-1.35-1.08-2.68-1.48-4.07c-1.28-4.43-2.49-8.88-3.74-13.32    c-0.3-1.04-0.77-1.94-2.08-1.97c-1.22-0.02-1.77,0.63-2.3,1.68C99.75,81.56,92.89,95,86.08,108.45c-0.44,0.88-1.59,1.8-0.81,2.78    c0.72,0.91,1.98,0.35,2.93,0.02c7.31-2.5,14.64-4.97,21.9-7.61c7.94-2.89,9.44-5.96,7.07-14.05c-0.31-1.05-0.81-2.26,0.28-2.79    c1.87-0.91,1.51-2.42,1.39-3.83c-0.64-7.48-1.3-14.95-2.09-22.42c-0.18-1.69,0.95-4.5-2.23-4.51c-3.13-0.01-1.96,3.12-2.77,4.78    c-0.37,0.77,0.11,2.02,0.37,3.01c0.69,2.67,1.65,5.28,2.18,7.97C115.2,76.37,117.82,80.64,116.14,85.76z M74.63,112.35    c0.79-0.23,2.09,0.34,2.63-0.82c0.4-0.88-0.47-1.62-0.96-2.38C68.97,98,61.69,86.81,54.34,75.66c-3.2-4.86-6.45-4.81-8.61,0.5    c-3.08,7.57-6.69,14.89-9.85,22.41c-1.37,3.26-0.13,5.66,3.32,6.66c1.98,0.58,4.04,0.86,6.07,1.26    C54.99,108.44,64.72,110.38,74.63,112.35z M69.54,30.1c-0.79-1.64-1.84-0.59-2.5-0.19c-4.63,2.83-9.21,5.77-13.8,8.67    c-5.37,3.39-10.74,6.77-16.1,10.18c-4.22,2.68-2.82,6.63,0.8,8.65c1.49,0.83,3.19,1.29,4.76,2.02c3.47,1.62,7.95,0.46,10.06-2.8    c5.24-8.09,10.42-16.22,15.62-24.35C68.8,31.6,69.13,30.87,69.54,30.1z M33.61,98.31c0.7-1.53,1.39-2.94,1.98-4.39    c2.44-6.08,4.97-12.1,6.98-18.36c2.88-8.97,1.86-12.79-5.73-16.97c-4.25-2.34-6.39-1.16-6.2,3.68    c0.42,11.06,1.01,22.11,1.52,33.16C32.2,96.48,32.4,97.43,33.61,98.31z M82.72,30.91c8.02,7.87,15.87,15.66,23.83,23.34    c1.97,1.9,3.97,1.32,5.27-1.18c1.68-3.24,0.51-6.41-3.57-8.84c-7.43-4.43-14.92-8.74-22.4-13.09    C85.07,30.67,84.26,30.11,82.72,30.91z M42.76,108.99c0.12,1.34,1.03,1.4,1.54,1.57c7.13,2.42,13.41,6.58,20.21,9.67    c1.88,0.85,3.49,2.23,5.64,2.56c2.93,0.46,6.94-1.42,7.5-3.68c0.56-2.24-1.41-4.17-5.19-4.87c-5.39-1-10.92-1.47-16.16-2.97    C51.87,109.99,47.57,108.72,42.76,108.99z M105.47,108.21c-0.16-0.3-0.32-0.61-0.48-0.91c-5.48,2.03-10.91,4.19-16.45,6.04    c-3.29,1.1-6.01,2.84-8.21,5.44c-0.61,0.72-1.88,1.4-0.99,2.58c0.89,1.19,1.92,0.2,2.76-0.24c4.27-2.26,8.53-4.55,12.76-6.88    C98.41,112.27,101.93,110.22,105.47,108.21z M53,65.43c-1.18-1.83-2.62-2.96-4.62-2.02c-1.18,0.55-1.28,2.19-0.6,3.02    C50.04,69.21,50.98,64.92,53,65.43z M109.58,60.44c-0.21-0.73-0.28-1.73-1.22-1.83c-1.26-0.14-1,1-1.06,1.72    c-0.08,0.88,0.17,1.63,1.26,1.63C109.61,61.97,109.39,61.08,109.58,60.44z M80.53,114.94c0.38-0.02,1.12-0.32,1.21-1.24    c0.07-0.65-0.56-1-1.11-0.95c-0.73,0.07-1.67,0.12-1.68,1.19C78.94,114.55,79.4,114.92,80.53,114.94z"
   id="path177" />
		<path
   class="st4"
   d="M66.35,65.22c4.66-0.91,9.37-1.49,14.14-1.76c5.06-0.29,10.07-1.32,15.17-1.12c1.4,0.05,2.71,0.12,3.99-0.65    c1.33-0.81,2.76-0.75,3.76,0.51c0.99,1.25,1.65,2.53,0.9,4.41c-2.49,6.25-6.25,11.83-8.94,17.99c-3.22,7.38-7.23,14.42-10.91,21.6    c-0.47,0.92-0.9,1.93-1.6,2.65c-1.57,1.64-3.18,1.83-4.46-0.42c-6.76-11.81-14.75-22.84-21.74-34.5c-0.72-1.2-2.86-0.53-2.54-2.91    c0.44-3.36,1.81-4.96,5.19-5.07C61.65,65.87,64,65.47,66.35,65.22z M74.71,74.81c-1.14,2.23-4.49,3.03-2.48,5.64    c1.48,1.92,1.81,3.85,2.08,5.99c0.13,1.01-0.03,2.27,1.2,2.61c1.34,0.38,2.15-0.69,2.72-1.67c1.48-2.58,1.9-5.53,2.56-8.37    c0.3-1.28-0.71-2.08-1.9-1.49C76.52,78.68,75.64,77.24,74.71,74.81z M87.8,76.39c-0.08-1.07-0.25-1.75-0.15-2.39    c0.18-1.07,0.44-2.29-0.98-2.44c-1.73-0.18-1.12,1.4-1.17,2.24c-0.26,3.89-0.42,7.78-0.56,11.67c-0.04,1.08-0.31,2.65,1.52,2.33    c1.4-0.24,2.68-2.52,2.46-2.72C85.83,82.3,88.3,78.96,87.8,76.39z"
   id="path179" />
		<path
   class="st4"
   d="M62.59,63.32c-1.2-0.59-2.48-0.53-3.74-0.57c-3.69-0.1-5.18-2.83-3.2-6.07c5.09-8.34,10.23-16.64,15.41-24.93    c2.37-3.79,5.73-4.45,8.89-1.28c7.93,7.93,15.66,16.07,23.37,24.22c2.03,2.15,1.32,3.68-1.76,4.02    c-6.89,0.76-13.89,0.91-20.68,2.19c-5.75,1.09-11.74-0.12-17.29,2.22C63.28,63.24,62.92,63.25,62.59,63.32z M79.1,47.18    c0.01,2.08,1.14,5.31,2.36,6.75c1.92,2.26,5.14,1.88,6.09-0.92c1.21-3.57,0.66-7.13-1.51-10.2c-1.99-2.81-4.63-2.43-6.14,0.68    C79.34,44.66,79.03,45.88,79.1,47.18z M74.14,52.19c3.32-6.6,3.78-7.91,2.45-8.85c-1.73-1.24-3.67-0.88-5.82,0.01    c5.45,2.6,5.53,3.11,1.56,7.76c-0.22,0.26-0.49,0.5-0.67,0.79c-0.71,1.12-2.17,2.17-1.23,3.63c0.81,1.26,2.39,0.72,3.52,0.42    c1.6-0.42,4.38,1.01,4.6-1.65C78.82,51.03,75.48,53.25,74.14,52.19z"
   id="path181" />
		<path
   class="st4"
   d="M116.14,85.76c1.68-5.13-0.95-9.39-1.84-13.95c-0.53-2.7-1.49-5.31-2.18-7.97c-0.26-0.99-0.74-2.24-0.37-3.01    c0.8-1.66-0.37-4.79,2.77-4.78c3.18,0.01,2.05,2.82,2.23,4.51c0.79,7.46,1.46,14.94,2.09,22.42c0.12,1.4,0.48,2.92-1.39,3.83    c-1.1,0.53-0.59,1.74-0.28,2.79c2.37,8.08,0.88,11.16-7.07,14.05c-7.26,2.64-14.59,5.1-21.9,7.61c-0.96,0.33-2.21,0.89-2.93-0.02    c-0.77-0.97,0.37-1.9,0.81-2.78C92.89,95,99.75,81.56,106.54,68.09c0.53-1.06,1.08-1.71,2.3-1.68c1.31,0.03,1.78,0.92,2.08,1.97    c1.26,4.44,2.46,8.89,3.74,13.32C115.06,83.08,115.64,84.41,116.14,85.76z M110.59,95.57c0.01-0.53-0.28-0.99-0.78-0.92    c-2.85,0.41-4.28-2.73-6.98-2.72c-0.61,0-1.28-0.77-1.82,0.06c-0.46,0.71-0.53,1.56-0.13,2.32c0.76,1.44,7.53,3.45,8.9,2.69    C110.35,96.68,110.55,96.18,110.59,95.57z M115.41,68.97c1.22-2.43,0.08-4.39,0.7-6.21c0.16-0.46-0.28-1.14-0.96-1.18    c-0.83-0.04-1.2,0.6-1.31,1.28C113.5,64.86,114.33,66.58,115.41,68.97z"
   id="path183" />
		<path
   class="st4"
   d="M74.63,112.35c-9.92-1.97-19.64-3.91-29.37-5.85c-2.03-0.4-4.09-0.69-6.07-1.26c-3.44-1-4.69-3.4-3.32-6.66    c3.16-7.52,6.78-14.84,9.85-22.41c2.16-5.3,5.41-5.36,8.61-0.5C61.69,86.81,68.97,98,76.3,109.16c0.5,0.76,1.37,1.49,0.96,2.38    C76.73,112.69,75.43,112.12,74.63,112.35z M53.35,101.97c0.55-0.08,1.8-0.21,3.03-0.45c1.98-0.39,3.28-1.65,3.64-3.58    c0.39-2.11-1.49-3.03-2.78-3.99c-1.62-1.2-6.43-0.16-7.71,1.44c-1.27,1.58-1.08,3.7-1.26,5.47c-0.09,0.91,2.55,0.89,4.01,1.06    C52.4,101.93,52.51,101.93,53.35,101.97z M55.1,89.68c-0.13-1.11-0.95-1.15-1.76-1.12c-1.03,0.04-1.74,0.54-1.87,1.61    c-0.13,1.1,0.58,1.36,1.49,1.31C54.1,91.41,54.87,90.86,55.1,89.68z"
   id="path185" />
		<path
   class="st4"
   d="M69.54,30.1c-0.41,0.77-0.74,1.51-1.17,2.18c-5.19,8.12-10.38,16.25-15.62,24.35    c-2.11,3.26-6.59,4.42-10.06,2.8c-1.56-0.73-3.26-1.18-4.76-2.02c-3.61-2.02-5.01-5.97-0.8-8.65c5.36-3.41,10.73-6.79,16.1-10.18    c4.59-2.9,9.16-5.83,13.8-8.67C67.69,29.5,68.75,28.46,69.54,30.1z M48.59,46.11c-1.5,0.25-2.64,0.89-2.64,2.61    c0,0.91,0.55,1.48,1.37,1.79c2.38,0.9,8-1.5,9.07-3.81c0.67-1.44-0.39-1.8-1.29-2.29c-0.7-0.38-2.02-0.57-1.84,0.24    c0.8,3.47-2.5,3.2-3.64,4.88c-1.08-1.02-0.54-1.95-0.52-2.83c1.09-0.36,2.26-0.63,2.56-2.17C50.13,44.51,49.37,45.33,48.59,46.11z    "
   id="path187" />
		<path
   class="st4"
   d="M33.61,98.31c-1.21-0.88-1.41-1.83-1.46-2.88c-0.51-11.05-1.1-22.1-1.52-33.16c-0.19-4.84,1.95-6.02,6.2-3.68    c7.59,4.18,8.61,7.99,5.73,16.97c-2.01,6.26-4.54,12.29-6.98,18.36C35,95.37,34.3,96.77,33.61,98.31z M37.82,72.57    c-0.29-1.94-0.55-3.88-0.89-5.81c-0.26-1.48-1.08-1.3-1.91-0.48c-1.4,1.4-1.6,12.19-0.21,12.25c2.99,0.14,1.39,2.61,2.77,3.73    c1.55-3.77,2.49-7.43,2.13-12.19C38.72,71.39,38.26,71.99,37.82,72.57z"
   id="path189" />
		<path
   class="st4"
   d="M82.72,30.91c1.54-0.79,2.35-0.23,3.13,0.22c7.48,4.35,14.97,8.66,22.4,13.09c4.08,2.44,5.26,5.6,3.57,8.84    c-1.3,2.5-3.3,3.09-5.27,1.18C98.6,46.57,90.74,38.78,82.72,30.91z M98.09,41.32c0.37,3.43,3.25,4.04,4.56,5.93    c0.09,0.13,0.8,0.07,0.85-0.05c0.15-0.38,0.2-0.84,0.15-1.26C103.32,42.87,100.75,42.5,98.09,41.32z"
   id="path191" />
		<path
   class="st4"
   d="M42.76,108.99c4.8-0.27,9.1,1,13.54,2.28c5.24,1.5,10.77,1.97,16.16,2.97c3.78,0.7,5.75,2.63,5.19,4.87    c-0.56,2.26-4.57,4.14-7.5,3.68c-2.15-0.34-3.76-1.71-5.64-2.56c-6.8-3.09-13.08-7.25-20.21-9.67    C43.79,110.38,42.88,110.33,42.76,108.99z M60.86,115.05c1.8,1.81,4.17,1.96,5.33,3.78c0.39,0.6,0.99,0.2,1.45-0.23    c0.69-0.64,0.44-1.17-0.08-1.76C65.93,115,64.1,113.82,60.86,115.05z"
   id="path193" />
		<path
   class="st4"
   d="M105.47,108.21c-3.54,2.01-7.06,4.06-10.62,6.02c-4.23,2.34-8.49,4.63-12.76,6.88    c-0.84,0.44-1.86,1.43-2.76,0.24c-0.89-1.18,0.38-1.86,0.99-2.58c2.2-2.6,4.93-4.34,8.21-5.44c5.54-1.85,10.97-4.01,16.45-6.04    C105.15,107.6,105.31,107.91,105.47,108.21z"
   id="path195" />
		<path
   class="st4"
   d="M53,65.43c-2.02-0.51-2.96,3.78-5.22,1c-0.67-0.83-0.57-2.47,0.6-3.02C50.38,62.47,51.82,63.6,53,65.43z"
   id="path197" />
		<path
   class="st4"
   d="M109.58,60.44c-0.19,0.64,0.02,1.53-1.02,1.52c-1.09,0-1.34-0.75-1.26-1.63c0.07-0.72-0.2-1.86,1.06-1.72    C109.31,58.71,109.37,59.71,109.58,60.44z"
   id="path199" />
		<path
   class="st4"
   d="M80.53,114.94c-1.13-0.02-1.59-0.39-1.58-1c0.01-1.06,0.95-1.12,1.68-1.19c0.56-0.05,1.18,0.29,1.11,0.95    C81.65,114.62,80.91,114.92,80.53,114.94z"
   id="path201" />
		<path
   class="st3"
   d="M74.71,74.81c0.92,2.43,1.81,3.87,4.18,2.71c1.19-0.59,2.2,0.21,1.9,1.49c-0.66,2.84-1.08,5.79-2.56,8.37    c-0.56,0.98-1.37,2.05-2.72,1.67c-1.23-0.35-1.07-1.6-1.2-2.61c-0.27-2.14-0.6-4.07-2.08-5.99    C70.22,77.84,73.57,77.04,74.71,74.81z M78.63,81.69c0.08-0.9-0.45-1.14-1.22-1.14c-0.9,0.01-1.56,0.31-1.48,1.36    c0.06,0.84,0.35,1.6,1.31,1.68C78.67,83.73,78.21,82.38,78.63,81.69z"
   id="path203" />
		<path
   class="st3"
   d="M87.8,76.39c0.5,2.57-1.98,5.91,1.12,8.69c0.22,0.2-1.06,2.48-2.46,2.72c-1.83,0.32-1.56-1.25-1.52-2.33    c0.14-3.89,0.3-7.78,0.56-11.67c0.06-0.84-0.55-2.42,1.17-2.24c1.42,0.15,1.16,1.37,0.98,2.44C87.55,74.64,87.73,75.32,87.8,76.39    z"
   id="path205" />
		<path
   class="st3"
   d="M79.11,47.18c-0.07-1.3,0.23-2.52,0.8-3.68c1.51-3.11,4.15-3.5,6.14-0.68c2.17,3.08,2.72,6.63,1.51,10.2    c-0.95,2.8-4.18,3.18-6.09,0.92C80.24,52.49,79.12,49.26,79.11,47.18z M81.37,46.43c0.15,2.39,0.15,5.1,2.83,5.76    c1.84,0.45,1.94-1.7,1.76-2.98c-0.31-2.19-0.2-5.02-3.08-5.52C81,43.36,81.52,45.34,81.37,46.43z"
   id="path207" />
		<path
   class="st3"
   d="M74.14,52.19c1.34,1.07,4.68-1.16,4.41,2.11c-0.22,2.66-3,1.23-4.6,1.65c-1.13,0.3-2.71,0.84-3.52-0.42    c-0.94-1.46,0.52-2.51,1.23-3.63c0.18-0.29,0.45-0.53,0.67-0.79c3.97-4.65,3.89-5.15-1.56-7.76c2.15-0.89,4.09-1.24,5.82-0.01    C77.92,44.28,77.46,45.59,74.14,52.19z"
   id="path209" />
		<path
   class="st3"
   d="M110.59,95.57c-0.03,0.61-0.24,1.11-0.8,1.43c-1.36,0.76-8.14-1.25-8.9-2.69c-0.4-0.76-0.34-1.61,0.13-2.32    c0.54-0.83,1.21-0.06,1.82-0.06c2.7,0,4.13,3.13,6.98,2.72C110.3,94.58,110.6,95.04,110.59,95.57z"
   id="path211" />
		<path
   class="st3"
   d="M115.41,68.97c-1.08-2.4-1.91-4.12-1.57-6.11c0.12-0.68,0.49-1.32,1.31-1.28c0.67,0.04,1.12,0.72,0.96,1.18    C115.49,64.58,116.63,66.54,115.41,68.97z"
   id="path213" />
		<path
   class="st3"
   d="M53.35,101.97c-0.83-0.04-0.95-0.04-1.06-0.06c-1.46-0.17-4.1-0.15-4.01-1.06c0.17-1.77-0.01-3.89,1.26-5.47    c1.28-1.6,6.09-2.64,7.71-1.44c1.29,0.95,3.17,1.88,2.78,3.99c-0.36,1.94-1.67,3.19-3.64,3.58    C55.15,101.76,53.89,101.89,53.35,101.97z M53.73,95.54c-1.17,0.22-2.42,0.78-2.36,2.26c0.04,0.93,0.91,2.13,2.05,1.77    c1.09-0.35,3.01-0.06,2.9-2.08C56.25,96.05,55.1,95.71,53.73,95.54z"
   id="path215" />
		<path
   class="st3"
   d="M55.1,89.68c-0.22,1.18-0.99,1.72-2.14,1.79c-0.91,0.05-1.62-0.21-1.49-1.31c0.13-1.06,0.84-1.57,1.87-1.61    C54.15,88.53,54.96,88.58,55.1,89.68z"
   id="path217" />
		<path
   class="st3"
   d="M49.11,46.71c-0.03,0.88-0.57,1.81,0.52,2.83c1.13-1.68,4.43-1.41,3.64-4.88c-0.19-0.81,1.14-0.62,1.84-0.24    c0.9,0.49,1.96,0.85,1.29,2.29c-1.07,2.31-6.69,4.7-9.07,3.81c-0.82-0.31-1.37-0.88-1.37-1.79c0-1.73,1.14-2.36,2.64-2.61    C48.76,46.31,48.94,46.51,49.11,46.71z"
   id="path219" />
		<path
   class="st3"
   d="M48.59,46.11c0.79-0.78,1.55-1.61,3.08-1.57c-0.3,1.54-1.47,1.81-2.56,2.17    C48.94,46.51,48.76,46.31,48.59,46.11z"
   id="path221" />
		<path
   class="st3"
   d="M37.82,72.57c0.44-0.58,0.9-1.18,1.89-2.49c0.35,4.76-0.58,8.42-2.13,12.19c-1.38-1.13,0.22-3.59-2.77-3.73    c-1.38-0.07-1.19-10.86,0.21-12.25c0.82-0.82,1.65-1.01,1.91,0.48C37.27,68.69,37.53,70.63,37.82,72.57z"
   id="path223" />
		<path
   class="st3"
   d="M98.09,41.32c2.66,1.18,5.23,1.55,5.57,4.62c0.05,0.42,0,0.88-0.15,1.26c-0.05,0.12-0.76,0.18-0.85,0.05    C101.33,45.36,98.46,44.75,98.09,41.32z"
   id="path225" />
		<path
   class="st3"
   d="M60.86,115.05c3.24-1.23,5.07-0.06,6.69,1.78c0.52,0.59,0.77,1.12,0.08,1.76c-0.46,0.43-1.07,0.83-1.45,0.23    C65.03,117.01,62.66,116.86,60.86,115.05z"
   id="path227" />
		<path
   class="st4"
   d="M78.63,81.69c-0.42,0.69,0.04,2.03-1.39,1.91c-0.96-0.09-1.25-0.85-1.31-1.68c-0.08-1.05,0.58-1.35,1.48-1.36    C78.17,80.55,78.71,80.8,78.63,81.69z"
   id="path229" />
		<path
   class="st4"
   d="M81.37,46.43c0.14-1.09-0.37-3.06,1.51-2.74c2.88,0.5,2.77,3.33,3.08,5.52c0.18,1.28,0.08,3.44-1.76,2.98    C81.53,51.53,81.52,48.82,81.37,46.43z"
   id="path231" />
		<path
   class="st4"
   d="M53.73,95.54c1.37,0.17,2.52,0.52,2.6,1.94c0.11,2.02-1.81,1.73-2.9,2.08c-1.15,0.36-2.02-0.84-2.05-1.77    C51.31,96.32,52.56,95.76,53.73,95.54z"
   id="path233" />
	</g>
</g>
</svg>